#N canvas 610 152 200 200 10;
#N canvas 501 59 420 300 META 0;
#X text 10 10 META this is a prototype of a libdir meta file;
#X text 10 90 LICENSE ?;
#X text 10 110 VERSION 1.0.0;
#X text 10 30 NAME listtosymbol;
#X text 10 51 AUTHOR Javier Nonis;
#X text 10 70 DESCRIPTION Convert a list into a symbol.;
#X restore 10 10 pd META;
